<svg xmlns="http://www.w3.org/2000/svg" width="17.024" height="29.007" viewBox="0 0 17.024 29.007"><defs><style>.a{fill:#1c2b44;fill-rule:evenodd;}</style></defs><g transform="translate(-41.338 64.249) rotate(-90)"><g transform="translate(35.241 41.338)"><path class="a" d="M45.574,54.8l2.084,2.084L48.7,57.929a1.468,1.468,0,0,0,2.082,0l1.044-1.045L53.913,54.8l9.9-9.9a1.469,1.469,0,0,0,0-2.084l-1.044-1.045a1.477,1.477,0,0,0-2.084,0l-9.9,9.9a1.477,1.477,0,0,1-2.086,0l-9.9-9.9a1.469,1.469,0,0,0-2.084,0l-1.045,1.045a1.476,1.476,0,0,0,0,2.084Z" transform="translate(-35.241 -41.338)"/></g></g></svg>