<svg xmlns="http://www.w3.org/2000/svg" width="29.518" height="17.324" viewBox="0 0 29.518 17.324"><defs><style>.a{fill:#f60;fill-rule:evenodd;}</style></defs><g transform="translate(-35.241 -41.338)"><g transform="translate(35.241 41.338)"><path class="a" d="M45.755,55.037l2.121,2.121,1.063,1.063a1.494,1.494,0,0,0,2.119,0l1.063-1.063,2.121-2.121L64.317,44.962a1.5,1.5,0,0,0,0-2.121l-1.063-1.063a1.5,1.5,0,0,0-2.121,0L51.06,51.855a1.5,1.5,0,0,1-2.122,0L38.862,41.78a1.5,1.5,0,0,0-2.121,0l-1.063,1.063a1.5,1.5,0,0,0,0,2.121Z" transform="translate(-35.241 -41.338)"/></g></g></svg>