<svg xmlns="http://www.w3.org/2000/svg" width="24.57" height="23.604" viewBox="0 0 24.57 23.604"><defs><style>.a{fill:#fff;}</style></defs><g transform="translate(-1.606 -33.2)"><path class="a" d="M14.8,34.8l2.7,5.5a1.037,1.037,0,0,0,.8.6l6.1.9a1.007,1.007,0,0,1,.6,1.7l-4.4,4.3a1.4,1.4,0,0,0-.3.9l1,6a1.05,1.05,0,0,1-1.5,1.1L14.4,53a.75.75,0,0,0-.9,0L8,55.7a1.042,1.042,0,0,1-1.5-1.1l1-6a1.008,1.008,0,0,0-.3-.9L2.8,43.4a.982.982,0,0,1,.6-1.7l6.1-.9c.3,0,.6-.3.8-.6L13,34.7A1,1,0,0,1,14.8,34.8Z"/><path class="a" d="M20.2,56.8a2.92,2.92,0,0,1-.9-.2l-5.4-2.8L8.5,56.6A2.117,2.117,0,0,1,6,56.1a1.875,1.875,0,0,1-.4-1.6l1-6L2.2,44.2a1.989,1.989,0,0,1-.5-2.1,2.076,2.076,0,0,1,1.6-1.4l6.1-.9,2.7-5.5a1.889,1.889,0,0,1,1.8-1.1,1.889,1.889,0,0,1,1.8,1.1l2.7,5.5,6.1.9a1.807,1.807,0,0,1,1.6,1.4,2.337,2.337,0,0,1-.5,2.1l-4.4,4.3,1,6a2.155,2.155,0,0,1-.4,1.6A2.36,2.36,0,0,1,20.2,56.8Zm-6.3-5.1a2.388,2.388,0,0,1,.9.2l5.4,2.9-1-6.1a2.016,2.016,0,0,1,.6-1.8l4.4-4.3-6.1-.9a1.923,1.923,0,0,1-1.5-1.1l-2.7-5.5-2.7,5.5a2.094,2.094,0,0,1-1.5,1.1l-6.1.9L8,47a2.016,2.016,0,0,1,.6,1.8l-1,6L13,52A1.4,1.4,0,0,1,13.9,51.7Z"/></g></svg>