<svg xmlns="http://www.w3.org/2000/svg" width="32.173" height="27.224" viewBox="0 0 32.173 27.224"><defs><style>.a{fill:#f60;}</style></defs><g transform="translate(-11.236 -160)"><g transform="translate(11.236 160)"><path class="a" d="M53.079,39.317V29.237a1.237,1.237,0,0,0-2.475,0V39.317a4.332,4.332,0,0,0,0,8.3v6.367a1.237,1.237,0,1,0,2.475,0V47.619a4.332,4.332,0,0,0,0-8.3ZM41.324,30.036v-.8a1.237,1.237,0,1,0-2.475,0v.8a4.332,4.332,0,0,0,0,8.3V53.986a1.237,1.237,0,1,0,2.475,0V38.338a4.332,4.332,0,0,0,0-8.3ZM29.568,44.885V29.237a1.237,1.237,0,0,0-2.475,0V44.885a4.332,4.332,0,0,0,0,8.3v.8a1.237,1.237,0,1,0,2.475,0v-.8a4.332,4.332,0,0,0,0-8.3Z" transform="translate(-24 -28)"/></g></g></svg>